<?xml version="1.0" encoding="UTF-8" standalone="no"?>
<!-- Created with Inkscape (http://www.inkscape.org/) -->

<svg
   xmlns:dc="http://purl.org/dc/elements/1.1/"
   xmlns:cc="http://creativecommons.org/ns#"
   xmlns:rdf="http://www.w3.org/1999/02/22-rdf-syntax-ns#"
   xmlns:svg="http://www.w3.org/2000/svg"
   xmlns="http://www.w3.org/2000/svg"
   xmlns:sodipodi="http://sodipodi.sourceforge.net/DTD/sodipodi-0.dtd"
   xmlns:inkscape="http://www.inkscape.org/namespaces/inkscape"
   width="1024"
   height="1024"
   viewBox="0 0 270.93333 270.93334"
   version="1.1"
   id="svg905"
   sodipodi:docname="logo.svg"
   inkscape:version="0.92.4 (5da689c313, 2019-01-14)"
   inkscape:export-xdpi="96"
   inkscape:export-ydpi="96">
  <defs
     id="defs899" />
  <sodipodi:namedview
     id="base"
     pagecolor="#ffffff"
     bordercolor="#666666"
     borderopacity="1.0"
     inkscape:pageopacity="0.0"
     inkscape:pageshadow="2"
     inkscape:zoom="1.4"
     inkscape:cx="402.3249"
     inkscape:cy="538.20261"
     inkscape:document-units="mm"
     inkscape:current-layer="layer1"
     showgrid="false"
     units="px"
     inkscape:window-width="3440"
     inkscape:window-height="1369"
     inkscape:window-x="1912"
     inkscape:window-y="-8"
     inkscape:window-maximized="1" />
  <metadata
     id="metadata902">
    <rdf:RDF>
      <cc:Work
         rdf:about="">
        <dc:format>image/svg+xml</dc:format>
        <dc:type
           rdf:resource="http://purl.org/dc/dcmitype/StillImage" />
        <dc:title></dc:title>
      </cc:Work>
    </rdf:RDF>
  </metadata>
  <g
     inkscape:label="Layer 1"
     inkscape:groupmode="layer"
     id="layer1"
     transform="translate(0,-26.06665)">
    <path
       style="fill:#ff6600;fill-opacity:0;stroke:#808080;stroke-width:0;stroke-opacity:1"
       d="m 197.38186,819.24796 c -15.8091,-1.66756 -28.59374,-12.86035 -32.53185,-28.4812 -1.94679,-7.72201 -1.02338,-16.85874 2.45478,-24.28912 1.56194,-3.33673 312.00247,-542.71975 314.25786,-546.01552 1.83016,-2.67438 6.66483,-7.49107 9.42556,-9.3905 16.57276,-11.40235 40.28836,-7.14635 51.542,9.24972 2.21535,3.22766 233.9341,405.79929 235.3267,408.83981 2.38062,5.19783 3.33057,10.41154 3.06465,16.8207 -0.39694,9.5683 -3.39229,16.8751 -9.70065,23.66374 -4.18036,4.49867 -7.9799,7.01052 -16.18633,10.7007 -9.5275,4.28423 -13.91783,6.51311 -19.52216,9.91099 -24.04137,14.57611 -43.50494,35.37419 -56.20428,60.05792 -5.96394,11.59206 -9.30785,20.64878 -12.9361,35.03644 -1.61247,6.39416 -3.07514,10.97975 -4.22277,13.23875 -6.05199,11.91278 -16.52329,19.15639 -29.8386,20.64116 -5.55719,0.61963 -429.05836,0.63564 -434.92881,0.0167 z"
       id="path1556"
       inkscape:connector-curvature="0"
       transform="matrix(0.26458333,0,0,0.26458333,0,26.06665)" />
    <path
       style="fill:#ff6600;fill-opacity:0;stroke:#808080;stroke-width:0;stroke-opacity:1"
       d="m 197.38186,819.24796 c -15.8091,-1.66756 -28.59374,-12.86035 -32.53185,-28.4812 -1.94679,-7.72201 -1.02338,-16.85874 2.45478,-24.28912 1.56194,-3.33673 312.00247,-542.71975 314.25786,-546.01552 1.83016,-2.67438 6.66483,-7.49107 9.42556,-9.3905 16.57276,-11.40235 40.28836,-7.14635 51.542,9.24972 2.21535,3.22766 233.9341,405.79929 235.3267,408.83981 2.38062,5.19783 3.33057,10.41154 3.06465,16.8207 -0.39694,9.5683 -3.39229,16.8751 -9.70065,23.66374 -4.18036,4.49867 -7.9799,7.01052 -16.18633,10.7007 -9.5275,4.28423 -13.91783,6.51311 -19.52216,9.91099 -24.04137,14.57611 -43.50494,35.37419 -56.20428,60.05792 -5.96394,11.59206 -9.30785,20.64878 -12.9361,35.03644 -1.61247,6.39416 -3.07514,10.97975 -4.22277,13.23875 -6.05199,11.91278 -16.52329,19.15639 -29.8386,20.64116 -5.55719,0.61963 -429.05836,0.63564 -434.92881,0.0167 z"
       id="path1558"
       inkscape:connector-curvature="0"
       transform="matrix(0.26458333,0,0,0.26458333,0,26.06665)" />
    <path
       style="fill:#ff6600;fill-opacity:0;stroke:#808080;stroke-width:0;stroke-opacity:1"
       d="m 192.5193,818.34249 c -18.10354,-4.38671 -30.65979,-22.33694 -28.2602,-40.40039 0.39155,-2.94745 1.50242,-7.28757 2.46862,-9.64471 1.65225,-4.03087 308.1464,-537.03919 314.30361,-546.58935 6.94904,-10.77833 17.71724,-16.69277 30.57929,-16.7957 13.3888,-0.10714 24.62297,6.03357 31.9786,17.47982 3.74694,5.83069 230.26626,399.3759 233.05361,404.89762 7.14102,14.14627 5.10858,30.49027 -5.19326,41.76212 -4.89528,5.35622 -8.02255,7.38323 -19.17853,12.43094 -37.35866,16.90359 -65.06881,45.99081 -79.86455,83.83345 -1.60171,4.09663 -4.24031,12.55041 -5.86358,18.78619 -1.62326,6.23577 -3.91892,13.25542 -5.10146,15.59923 -2.71518,5.38156 -9.57187,12.21422 -15.25445,15.201 -9.11699,4.79193 8.90386,4.45014 -231.71924,4.3948 -173.53309,-0.0399 -218.97889,-0.23546 -221.94846,-0.95502 z"
       id="path1560"
       inkscape:connector-curvature="0"
       transform="matrix(0.26458333,0,0,0.26458333,0,26.06665)" />
    <path
       style="fill:#ff6600;fill-opacity:0;stroke:#808080;stroke-width:0;stroke-opacity:1"
       d="m 195.18205,818.87535 c -11.69863,-1.9583 -21.81008,-9.58945 -27.14562,-20.48688 -4.89814,-10.00408 -5.2943,-20.40184 -1.15863,-30.40982 2.13707,-5.17156 312.58447,-544.2445 316.22367,-549.1031 3.09223,-4.12835 9.8566,-9.20077 15.29486,-11.46921 7.30437,-3.04683 18.38063,-3.28289 26.04802,-0.55515 6.8477,2.43612 13.91335,7.80628 17.85793,13.57271 2.37323,3.46932 231.88264,402.0009 234.57388,407.32578 7.40463,14.65077 4.23274,32.43185 -7.79196,43.68037 -2.4698,2.31037 -6.20637,5.01389 -8.30349,6.00783 -2.09712,0.99392 -7.89159,3.73214 -12.8766,6.08492 -40.67532,19.19755 -71.06416,56.99675 -81.6499,101.5603 -2.65884,11.19314 -5.80497,17.61978 -11.31482,23.11293 -5.04419,5.0289 -10.92085,8.36323 -17.66012,10.0201 -4.26697,1.04905 -24.2713,1.14395 -222.5,1.05542 -119.79633,-0.0535 -218.61508,-0.23179 -219.59722,-0.3962 z"
       id="path1562"
       inkscape:connector-curvature="0"
       transform="matrix(0.26458333,0,0,0.26458333,0,26.06665)" />
    <path
       style="fill:#ff6600;fill-opacity:0;stroke:#808080;stroke-width:0;stroke-opacity:1"
       d="m 196.1729,818.65994 c -15.27295,-2.25743 -28.02525,-13.93615 -31.03259,-28.42006 -1.06714,-5.13955 -0.4904,-15.81375 1.09575,-20.27977 0.65189,-1.83551 71.81195,-126.06765 158.13346,-276.07143 151.46933,-263.2133 157.12164,-272.90905 161.91608,-277.74448 2.73233,-2.75568 6.59908,-5.87903 8.59277,-6.94078 15.34058,-8.16964 35.52677,-3.8644 45.98853,9.80826 3.26955,4.27303 234.72865,406.19676 237.04975,411.63175 5.6547,13.24086 2.37703,29.24867 -8.14274,39.76845 -4.66006,4.66006 -5.79163,5.32004 -21.94966,12.802 -14.89037,6.89497 -28.93533,16.868 -41.47721,29.45209 -20.07625,20.14382 -33.42052,44.09838 -40.48481,72.67506 -2.77806,11.23792 -5.18625,16.25536 -10.55829,21.99809 -4.53718,4.85026 -9.61615,8.0278 -16.55046,10.35443 -3.78213,1.26899 -12.03648,1.32163 -221.42858,1.41215 -119.625,0.0517 -219.1434,-0.14887 -221.152,-0.44576 z"
       id="path1564"
       inkscape:connector-curvature="0"
       transform="matrix(0.26458333,0,0,0.26458333,0,26.06665)" />
    <path
       style="fill:#ff6600;fill-opacity:0;stroke:#808080;stroke-width:0;stroke-opacity:1"
       d="m 196.1729,818.65994 c -15.27295,-2.25743 -28.02525,-13.93615 -31.03259,-28.42006 -1.06714,-5.13955 -0.4904,-15.81375 1.09575,-20.27977 0.65189,-1.83551 71.81195,-126.06765 158.13346,-276.07143 151.46933,-263.2133 157.12164,-272.90905 161.91608,-277.74448 2.73233,-2.75568 6.59908,-5.87903 8.59277,-6.94078 15.34058,-8.16964 35.52677,-3.8644 45.98853,9.80826 3.26955,4.27303 234.72865,406.19676 237.04975,411.63175 5.6547,13.24086 2.37703,29.24867 -8.14274,39.76845 -4.66006,4.66006 -5.79163,5.32004 -21.94966,12.802 -14.89037,6.89497 -28.93533,16.868 -41.47721,29.45209 -20.07625,20.14382 -33.42052,44.09838 -40.48481,72.67506 -2.77806,11.23792 -5.18625,16.25536 -10.55829,21.99809 -4.53718,4.85026 -9.61615,8.0278 -16.55046,10.35443 -3.78213,1.26899 -12.03648,1.32163 -221.42858,1.41215 -119.625,0.0517 -219.1434,-0.14887 -221.152,-0.44576 z"
       id="path1566"
       inkscape:connector-curvature="0"
       transform="matrix(0.26458333,0,0,0.26458333,0,26.06665)" />
    <path
       style="fill:#eeeeee;fill-opacity:1;stroke:#808080;stroke-width:0;stroke-opacity:1"
       d="m 196.1729,818.65994 c -15.27295,-2.25743 -28.02525,-13.93615 -31.03259,-28.42006 -1.06714,-5.13955 -0.4904,-15.81375 1.09575,-20.27977 0.65189,-1.83551 71.81195,-126.06765 158.13346,-276.07143 151.46933,-263.2133 157.12164,-272.90905 161.91608,-277.74448 2.73233,-2.75568 6.59908,-5.87903 8.59277,-6.94078 15.34058,-8.16964 35.52677,-3.8644 45.98853,9.80826 3.26955,4.27303 234.72865,406.19676 237.04975,411.63175 5.6547,13.24086 2.37703,29.24867 -8.14274,39.76845 -4.66006,4.66006 -5.79163,5.32004 -21.94966,12.802 -14.89037,6.89497 -28.93533,16.868 -41.47721,29.45209 -20.07625,20.14382 -33.42052,44.09838 -40.48481,72.67506 -2.77806,11.23792 -5.18625,16.25536 -10.55829,21.99809 -4.53718,4.85026 -9.61615,8.0278 -16.55046,10.35443 -3.78213,1.26899 -12.03648,1.32163 -221.42858,1.41215 -119.625,0.0517 -219.1434,-0.14887 -221.152,-0.44576 z"
       id="path1568"
       inkscape:connector-curvature="0"
       transform="matrix(0.26458333,0,0,0.26458333,0,26.06665)" />
    <path
       style="fill:#eeeeee;fill-opacity:1;stroke:#808080;stroke-width:0;stroke-opacity:1"
       d="m 717.55805,818.62928 c -4.32426,-0.86439 -6.84752,-2.36943 -10.02563,-5.97995 -4.903,-5.57011 -5.59357,-10.94575 -2.76324,-21.50997 16.91294,-63.12749 83.2054,-98.55539 144.88139,-77.42725 35.24715,12.0745 62.61713,41.92126 71.9452,78.45569 2.53378,9.92386 1.72036,15.37321 -3.07509,20.60069 -1.63982,1.78756 -4.42792,3.92355 -6.19578,4.74665 -3.20806,1.49364 -3.39672,1.49674 -97.5,1.6033 -51.85714,0.0587 -95.62722,-0.1614 -97.26685,-0.48916 z"
       id="path1570"
       inkscape:connector-curvature="0"
       transform="matrix(0.26458333,0,0,0.26458333,0,26.06665)" />
  </g>
</svg>
